<svg xmlns="http://www.w3.org/2000/svg" width="21.579" height="21.577" viewBox="0 0 21.579 21.577"><defs><style>.a{fill:#5dcc96;}</style></defs><g transform="translate(0)"><g transform="translate(0 9.887)"><path class="a" d="M480.674,236.062a.674.674,0,0,0,.674-.669c0-.024,0-.048,0-.072a.674.674,0,0,0-1.348-.038c0,.034,0,.067,0,.1A.674.674,0,0,0,480.674,236.062Z" transform="translate(-479.999 -234.627)"/></g><g transform="translate(0.207 0)"><path class="a" d="M18.069,18.574A10.789,10.789,0,1,0,.108,8.206a.674.674,0,0,0,1.309.324,9.443,9.443,0,1,1-.083,4.191.674.674,0,0,0-1.321.272,10.8,10.8,0,0,0,18.055,5.581Z" transform="translate(0 -0.019)"/></g><path class="a" d="M128.211,210.47a.674.674,0,0,1-.149-.494c.031-.321.106-.322,1.543-1.759a.674.674,0,0,1,.954.954l-.2.2h4.57a.674.674,0,0,1,0,1.349H130.36l.2.2a.674.674,0,1,1-.954.954C128.135,210.4,128.242,210.508,128.211,210.47Z" transform="translate(-119.423 -199.254)"/><g transform="translate(4.719 5.057)"><path class="a" d="M130.081,131.483H137.5a2.025,2.025,0,0,0,2.023-2.023v-1.349a.674.674,0,1,0-1.349,0v1.349a.675.675,0,0,1-.674.674h-7.417a.675.675,0,0,1-.674-.674v-7.417a.675.675,0,0,1,.674-.674H137.5a.675.675,0,0,1,.674.674v1.349a.674.674,0,1,0,1.349,0v-1.349a2.025,2.025,0,0,0-2.023-2.023h-7.417a2.025,2.025,0,0,0-2.023,2.023v7.417A2.025,2.025,0,0,0,130.081,131.483Z" transform="translate(-128.058 -120.02)"/></g></g></svg>